<svg width="676" height="229" viewBox="0 0 676 229" fill="none" xmlns="http://www.w3.org/2000/svg">
<g filter="url(#filter0_i_8_32)">
<rect width="676" height="228.324" rx="5" fill="#0B0A66"/>
</g>
<path d="M9 3.5H107.173C109.658 3.5 111.673 5.51472 111.673 8V106.684C111.673 109.17 109.658 111.184 107.173 111.184H9C6.51472 111.184 4.5 109.17 4.5 106.684V8C4.5 5.51472 6.51472 3.5 9 3.5Z" fill="#323EB1" stroke="black"/>
<rect x="228.557" y="3.50189" width="107.173" height="107.684" rx="4.5" fill="#323EB1" stroke="black"/>
<rect x="116.928" y="3.5" width="107.173" height="107.684" rx="4.5" fill="#323EB1" stroke="black"/>
<rect x="340.187" y="3.50189" width="107.173" height="107.684" rx="4.5" fill="#323EB1" stroke="black"/>
<rect x="451.816" y="3.50189" width="107.173" height="107.684" rx="4.5" fill="#323EB1" stroke="black"/>
<rect x="451.816" y="116.047" width="107.173" height="107.684" rx="4.5" fill="#323EB1" stroke="black"/>
<rect x="340.187" y="116.047" width="107.173" height="107.684" rx="4.5" fill="#323EB1" stroke="black"/>
<rect x="228.557" y="116.047" width="107.173" height="107.684" rx="4.5" fill="#323EB1" stroke="black"/>
<rect x="116.928" y="116.052" width="107.173" height="107.684" rx="4.5" fill="#323EB1" stroke="black"/>
<path d="M9 116.052H107.173C109.658 116.052 111.673 118.066 111.673 120.552V219.236C111.673 221.721 109.658 223.736 107.173 223.736H9C6.51472 223.736 4.5 221.721 4.5 219.236V120.552C4.5 118.066 6.51472 116.052 9 116.052Z" fill="#323EB1" stroke="black"/>
<path d="M665.746 116.047H567.573C565.087 116.047 563.073 118.062 563.073 120.547V219.232C563.073 221.717 565.087 223.732 567.573 223.732H665.746C668.231 223.732 670.246 221.717 670.246 219.232V120.547C670.246 118.062 668.231 116.047 665.746 116.047Z" fill="#323EB1" stroke="black"/>
<path d="M567.946 3.50189H666.119C668.604 3.50189 670.619 5.51661 670.619 8.00189V106.686C670.619 109.172 668.604 111.186 666.119 111.186H567.946C565.461 111.186 563.446 109.172 563.446 106.686V8.00189C563.446 5.51661 565.461 3.50189 567.946 3.50189Z" fill="#323EB1" stroke="black"/>
<defs>
<filter id="filter0_i_8_32" x="0" y="0" width="681" height="233.324" filterUnits="userSpaceOnUse" color-interpolation-filters="sRGB">
<feFlood flood-opacity="0" result="BackgroundImageFix"/>
<feBlend mode="normal" in="SourceGraphic" in2="BackgroundImageFix" result="shape"/>
<feColorMatrix in="SourceAlpha" type="matrix" values="0 0 0 0 0 0 0 0 0 0 0 0 0 0 0 0 0 0 127 0" result="hardAlpha"/>
<feOffset dx="5" dy="6"/>
<feGaussianBlur stdDeviation="2.5"/>
<feComposite in2="hardAlpha" operator="arithmetic" k2="-1" k3="1"/>
<feColorMatrix type="matrix" values="0 0 0 0 0 0 0 0 0 0 0 0 0 0 0 0 0 0 0.29 0"/>
<feBlend mode="overlay" in2="shape" result="effect1_innerShadow_8_32"/>
</filter>
</defs>
</svg>
