<svg width="676" height="229" viewBox="0 0 676 229" fill="none" xmlns="http://www.w3.org/2000/svg">
<g filter="url(#filter0_i_8_32)">
<rect y="0.675537" width="676" height="228.324" rx="5" fill="#081483"/>
</g>
<g filter="url(#filter1_d_8_32)">
<path d="M2.9502 7.65802C2.9502 4.89659 5.18877 2.65802 7.9502 2.65802H106.123C108.885 2.65802 111.123 4.8966 111.123 7.65802V106.342C111.123 109.104 108.885 111.342 106.123 111.342H7.9502C5.18878 111.342 2.9502 109.104 2.9502 106.342V7.65802Z" fill="#4B57C5"/>
<path d="M7.9502 3.15802H106.123C108.608 3.15802 110.623 5.17274 110.623 7.65802V106.342C110.623 108.828 108.608 110.842 106.123 110.842H7.9502C5.46492 110.842 3.4502 108.828 3.4502 106.342V7.65802C3.4502 5.17274 5.46491 3.15802 7.9502 3.15802Z" stroke="black"/>
</g>
<g filter="url(#filter2_d_8_32)">
<rect x="227.008" y="2.65991" width="108.173" height="108.684" rx="5" fill="#4B57C5"/>
<rect x="227.508" y="3.15991" width="107.173" height="107.684" rx="4.5" stroke="black"/>
</g>
<g filter="url(#filter3_d_8_32)">
<rect x="115.378" y="2.65802" width="108.173" height="108.684" rx="5" fill="#4B57C5"/>
<rect x="115.878" y="3.15802" width="107.173" height="107.684" rx="4.5" stroke="black"/>
</g>
<g filter="url(#filter4_d_8_32)">
<rect x="338.637" y="2.65991" width="108.173" height="108.684" rx="5" fill="#4B57C5"/>
<rect x="339.137" y="3.15991" width="107.173" height="107.684" rx="4.5" stroke="black"/>
</g>
<g filter="url(#filter5_d_8_32)">
<rect x="450.267" y="2.65991" width="108.173" height="108.684" rx="5" fill="#4B57C5"/>
<rect x="450.767" y="3.15991" width="107.173" height="107.684" rx="4.5" stroke="black"/>
</g>
<g filter="url(#filter6_d_8_32)">
<rect x="450.267" y="115.205" width="108.173" height="108.684" rx="5" fill="#4B57C5"/>
<rect x="450.767" y="115.705" width="107.173" height="107.684" rx="4.5" stroke="black"/>
</g>
<g filter="url(#filter7_d_8_32)">
<rect x="338.637" y="115.205" width="108.173" height="108.684" rx="5" fill="#4B57C5"/>
<rect x="339.137" y="115.705" width="107.173" height="107.684" rx="4.5" stroke="black"/>
</g>
<g filter="url(#filter8_d_8_32)">
<rect x="227.008" y="115.205" width="108.173" height="108.684" rx="5" fill="#4B57C5"/>
<rect x="227.508" y="115.705" width="107.173" height="107.684" rx="4.5" stroke="black"/>
</g>
<g filter="url(#filter9_d_8_32)">
<rect x="115.378" y="115.21" width="108.173" height="108.684" rx="5" fill="#4B57C5"/>
<rect x="115.878" y="115.71" width="107.173" height="107.684" rx="4.5" stroke="black"/>
</g>
<g filter="url(#filter10_d_8_32)">
<path d="M2.9502 120.21C2.9502 117.448 5.18877 115.21 7.9502 115.21H106.123C108.885 115.21 111.123 117.448 111.123 120.21V218.894C111.123 221.655 108.885 223.894 106.123 223.894H7.9502C5.18878 223.894 2.9502 221.655 2.9502 218.894V120.21Z" fill="#4B57C5"/>
<path d="M7.9502 115.71H106.123C108.608 115.71 110.623 117.724 110.623 120.21V218.894C110.623 221.379 108.608 223.394 106.123 223.394H7.9502C5.46492 223.394 3.4502 221.379 3.4502 218.894V120.21C3.4502 117.724 5.46491 115.71 7.9502 115.71Z" stroke="black"/>
</g>
<g filter="url(#filter11_d_8_32)">
<path d="M669.696 120.205C669.696 117.444 667.457 115.205 664.696 115.205H566.523C563.761 115.205 561.523 117.444 561.523 120.205V218.89C561.523 221.651 563.761 223.89 566.523 223.89H664.696C667.457 223.89 669.696 221.651 669.696 218.89V120.205Z" fill="#4B57C5"/>
<path d="M664.696 115.705H566.523C564.038 115.705 562.023 117.72 562.023 120.205V218.89C562.023 221.375 564.038 223.39 566.523 223.39H664.696C667.181 223.39 669.196 221.375 669.196 218.89V120.205C669.196 117.72 667.181 115.705 664.696 115.705Z" stroke="black"/>
</g>
<g filter="url(#filter12_d_8_32)">
<path d="M561.896 7.65991C561.896 4.89849 564.135 2.65991 566.896 2.65991H665.069C667.831 2.65991 670.069 4.89849 670.069 7.65991V106.344C670.069 109.106 667.831 111.344 665.069 111.344H566.896C564.135 111.344 561.896 109.106 561.896 106.344V7.65991Z" fill="#4B57C5"/>
<path d="M566.896 3.15991H665.069C667.554 3.15991 669.569 5.17463 669.569 7.65991V106.344C669.569 108.83 667.554 110.844 665.069 110.844H566.896C564.411 110.844 562.396 108.83 562.396 106.344V7.65991C562.396 5.17463 564.411 3.15991 566.896 3.15991Z" stroke="black"/>
</g>
<defs>
<filter id="filter0_i_8_32" x="0" y="0.675537" width="681" height="233.324" filterUnits="userSpaceOnUse" color-interpolation-filters="sRGB">
<feFlood flood-opacity="0" result="BackgroundImageFix"/>
<feBlend mode="normal" in="SourceGraphic" in2="BackgroundImageFix" result="shape"/>
<feColorMatrix in="SourceAlpha" type="matrix" values="0 0 0 0 0 0 0 0 0 0 0 0 0 0 0 0 0 0 127 0" result="hardAlpha"/>
<feOffset dx="5" dy="6"/>
<feGaussianBlur stdDeviation="2.5"/>
<feComposite in2="hardAlpha" operator="arithmetic" k2="-1" k3="1"/>
<feColorMatrix type="matrix" values="0 0 0 0 0 0 0 0 0 0 0 0 0 0 0 0 0 0 0.29 0"/>
<feBlend mode="overlay" in2="shape" result="effect1_innerShadow_8_32"/>
</filter>
<filter id="filter1_d_8_32" x="2.9502" y="2.65802" width="111.173" height="111.684" filterUnits="userSpaceOnUse" color-interpolation-filters="sRGB">
<feFlood flood-opacity="0" result="BackgroundImageFix"/>
<feColorMatrix in="SourceAlpha" type="matrix" values="0 0 0 0 0 0 0 0 0 0 0 0 0 0 0 0 0 0 127 0" result="hardAlpha"/>
<feOffset dx="3" dy="3"/>
<feComposite in2="hardAlpha" operator="out"/>
<feColorMatrix type="matrix" values="0 0 0 0 0.145679 0 0 0 0 0.137257 0 0 0 0 0.558333 0 0 0 1 0"/>
<feBlend mode="normal" in2="BackgroundImageFix" result="effect1_dropShadow_8_32"/>
<feBlend mode="normal" in="SourceGraphic" in2="effect1_dropShadow_8_32" result="shape"/>
</filter>
<filter id="filter2_d_8_32" x="227.008" y="2.65991" width="111.173" height="111.684" filterUnits="userSpaceOnUse" color-interpolation-filters="sRGB">
<feFlood flood-opacity="0" result="BackgroundImageFix"/>
<feColorMatrix in="SourceAlpha" type="matrix" values="0 0 0 0 0 0 0 0 0 0 0 0 0 0 0 0 0 0 127 0" result="hardAlpha"/>
<feOffset dx="3" dy="3"/>
<feComposite in2="hardAlpha" operator="out"/>
<feColorMatrix type="matrix" values="0 0 0 0 0.145679 0 0 0 0 0.137257 0 0 0 0 0.558333 0 0 0 1 0"/>
<feBlend mode="normal" in2="BackgroundImageFix" result="effect1_dropShadow_8_32"/>
<feBlend mode="normal" in="SourceGraphic" in2="effect1_dropShadow_8_32" result="shape"/>
</filter>
<filter id="filter3_d_8_32" x="115.378" y="2.65802" width="111.173" height="111.684" filterUnits="userSpaceOnUse" color-interpolation-filters="sRGB">
<feFlood flood-opacity="0" result="BackgroundImageFix"/>
<feColorMatrix in="SourceAlpha" type="matrix" values="0 0 0 0 0 0 0 0 0 0 0 0 0 0 0 0 0 0 127 0" result="hardAlpha"/>
<feOffset dx="3" dy="3"/>
<feComposite in2="hardAlpha" operator="out"/>
<feColorMatrix type="matrix" values="0 0 0 0 0.145679 0 0 0 0 0.137257 0 0 0 0 0.558333 0 0 0 1 0"/>
<feBlend mode="normal" in2="BackgroundImageFix" result="effect1_dropShadow_8_32"/>
<feBlend mode="normal" in="SourceGraphic" in2="effect1_dropShadow_8_32" result="shape"/>
</filter>
<filter id="filter4_d_8_32" x="338.637" y="2.65991" width="111.173" height="111.684" filterUnits="userSpaceOnUse" color-interpolation-filters="sRGB">
<feFlood flood-opacity="0" result="BackgroundImageFix"/>
<feColorMatrix in="SourceAlpha" type="matrix" values="0 0 0 0 0 0 0 0 0 0 0 0 0 0 0 0 0 0 127 0" result="hardAlpha"/>
<feOffset dx="3" dy="3"/>
<feComposite in2="hardAlpha" operator="out"/>
<feColorMatrix type="matrix" values="0 0 0 0 0.145679 0 0 0 0 0.137257 0 0 0 0 0.558333 0 0 0 1 0"/>
<feBlend mode="normal" in2="BackgroundImageFix" result="effect1_dropShadow_8_32"/>
<feBlend mode="normal" in="SourceGraphic" in2="effect1_dropShadow_8_32" result="shape"/>
</filter>
<filter id="filter5_d_8_32" x="450.267" y="2.65991" width="111.173" height="111.684" filterUnits="userSpaceOnUse" color-interpolation-filters="sRGB">
<feFlood flood-opacity="0" result="BackgroundImageFix"/>
<feColorMatrix in="SourceAlpha" type="matrix" values="0 0 0 0 0 0 0 0 0 0 0 0 0 0 0 0 0 0 127 0" result="hardAlpha"/>
<feOffset dx="3" dy="3"/>
<feComposite in2="hardAlpha" operator="out"/>
<feColorMatrix type="matrix" values="0 0 0 0 0.145679 0 0 0 0 0.137257 0 0 0 0 0.558333 0 0 0 1 0"/>
<feBlend mode="normal" in2="BackgroundImageFix" result="effect1_dropShadow_8_32"/>
<feBlend mode="normal" in="SourceGraphic" in2="effect1_dropShadow_8_32" result="shape"/>
</filter>
<filter id="filter6_d_8_32" x="450.267" y="115.205" width="111.173" height="111.684" filterUnits="userSpaceOnUse" color-interpolation-filters="sRGB">
<feFlood flood-opacity="0" result="BackgroundImageFix"/>
<feColorMatrix in="SourceAlpha" type="matrix" values="0 0 0 0 0 0 0 0 0 0 0 0 0 0 0 0 0 0 127 0" result="hardAlpha"/>
<feOffset dx="3" dy="3"/>
<feComposite in2="hardAlpha" operator="out"/>
<feColorMatrix type="matrix" values="0 0 0 0 0.145679 0 0 0 0 0.137257 0 0 0 0 0.558333 0 0 0 1 0"/>
<feBlend mode="normal" in2="BackgroundImageFix" result="effect1_dropShadow_8_32"/>
<feBlend mode="normal" in="SourceGraphic" in2="effect1_dropShadow_8_32" result="shape"/>
</filter>
<filter id="filter7_d_8_32" x="338.637" y="115.205" width="111.173" height="111.684" filterUnits="userSpaceOnUse" color-interpolation-filters="sRGB">
<feFlood flood-opacity="0" result="BackgroundImageFix"/>
<feColorMatrix in="SourceAlpha" type="matrix" values="0 0 0 0 0 0 0 0 0 0 0 0 0 0 0 0 0 0 127 0" result="hardAlpha"/>
<feOffset dx="3" dy="3"/>
<feComposite in2="hardAlpha" operator="out"/>
<feColorMatrix type="matrix" values="0 0 0 0 0.145679 0 0 0 0 0.137257 0 0 0 0 0.558333 0 0 0 1 0"/>
<feBlend mode="normal" in2="BackgroundImageFix" result="effect1_dropShadow_8_32"/>
<feBlend mode="normal" in="SourceGraphic" in2="effect1_dropShadow_8_32" result="shape"/>
</filter>
<filter id="filter8_d_8_32" x="227.008" y="115.205" width="111.173" height="111.684" filterUnits="userSpaceOnUse" color-interpolation-filters="sRGB">
<feFlood flood-opacity="0" result="BackgroundImageFix"/>
<feColorMatrix in="SourceAlpha" type="matrix" values="0 0 0 0 0 0 0 0 0 0 0 0 0 0 0 0 0 0 127 0" result="hardAlpha"/>
<feOffset dx="3" dy="3"/>
<feComposite in2="hardAlpha" operator="out"/>
<feColorMatrix type="matrix" values="0 0 0 0 0.145679 0 0 0 0 0.137257 0 0 0 0 0.558333 0 0 0 1 0"/>
<feBlend mode="normal" in2="BackgroundImageFix" result="effect1_dropShadow_8_32"/>
<feBlend mode="normal" in="SourceGraphic" in2="effect1_dropShadow_8_32" result="shape"/>
</filter>
<filter id="filter9_d_8_32" x="115.378" y="115.21" width="111.173" height="111.684" filterUnits="userSpaceOnUse" color-interpolation-filters="sRGB">
<feFlood flood-opacity="0" result="BackgroundImageFix"/>
<feColorMatrix in="SourceAlpha" type="matrix" values="0 0 0 0 0 0 0 0 0 0 0 0 0 0 0 0 0 0 127 0" result="hardAlpha"/>
<feOffset dx="3" dy="3"/>
<feComposite in2="hardAlpha" operator="out"/>
<feColorMatrix type="matrix" values="0 0 0 0 0.145679 0 0 0 0 0.137257 0 0 0 0 0.558333 0 0 0 1 0"/>
<feBlend mode="normal" in2="BackgroundImageFix" result="effect1_dropShadow_8_32"/>
<feBlend mode="normal" in="SourceGraphic" in2="effect1_dropShadow_8_32" result="shape"/>
</filter>
<filter id="filter10_d_8_32" x="2.9502" y="115.21" width="111.173" height="111.684" filterUnits="userSpaceOnUse" color-interpolation-filters="sRGB">
<feFlood flood-opacity="0" result="BackgroundImageFix"/>
<feColorMatrix in="SourceAlpha" type="matrix" values="0 0 0 0 0 0 0 0 0 0 0 0 0 0 0 0 0 0 127 0" result="hardAlpha"/>
<feOffset dx="3" dy="3"/>
<feComposite in2="hardAlpha" operator="out"/>
<feColorMatrix type="matrix" values="0 0 0 0 0.145679 0 0 0 0 0.137257 0 0 0 0 0.558333 0 0 0 1 0"/>
<feBlend mode="normal" in2="BackgroundImageFix" result="effect1_dropShadow_8_32"/>
<feBlend mode="normal" in="SourceGraphic" in2="effect1_dropShadow_8_32" result="shape"/>
</filter>
<filter id="filter11_d_8_32" x="561.523" y="115.205" width="111.173" height="111.684" filterUnits="userSpaceOnUse" color-interpolation-filters="sRGB">
<feFlood flood-opacity="0" result="BackgroundImageFix"/>
<feColorMatrix in="SourceAlpha" type="matrix" values="0 0 0 0 0 0 0 0 0 0 0 0 0 0 0 0 0 0 127 0" result="hardAlpha"/>
<feOffset dx="3" dy="3"/>
<feComposite in2="hardAlpha" operator="out"/>
<feColorMatrix type="matrix" values="0 0 0 0 0.145679 0 0 0 0 0.137257 0 0 0 0 0.558333 0 0 0 1 0"/>
<feBlend mode="normal" in2="BackgroundImageFix" result="effect1_dropShadow_8_32"/>
<feBlend mode="normal" in="SourceGraphic" in2="effect1_dropShadow_8_32" result="shape"/>
</filter>
<filter id="filter12_d_8_32" x="561.896" y="2.65991" width="111.173" height="111.684" filterUnits="userSpaceOnUse" color-interpolation-filters="sRGB">
<feFlood flood-opacity="0" result="BackgroundImageFix"/>
<feColorMatrix in="SourceAlpha" type="matrix" values="0 0 0 0 0 0 0 0 0 0 0 0 0 0 0 0 0 0 127 0" result="hardAlpha"/>
<feOffset dx="3" dy="3"/>
<feComposite in2="hardAlpha" operator="out"/>
<feColorMatrix type="matrix" values="0 0 0 0 0.145679 0 0 0 0 0.137257 0 0 0 0 0.558333 0 0 0 1 0"/>
<feBlend mode="normal" in2="BackgroundImageFix" result="effect1_dropShadow_8_32"/>
<feBlend mode="normal" in="SourceGraphic" in2="effect1_dropShadow_8_32" result="shape"/>
</filter>
</defs>
</svg>
